<svg width="92" height="106" viewBox="0 0 92 106" fill="none" xmlns="http://www.w3.org/2000/svg">
<g id="logo/palace">
<path id="Vector" d="M25.8759 5.73882C33.8141 5.73882 40.2504 36.5708 40.2504 74.6004H51.7496C51.7496 36.5708 58.1859 5.73882 66.1242 5.73882C74.0624 5.73882 80.5008 39.1392 80.5008 80.3392H91.9979C92 35.971 80.4151 0 66.1263 0C57.9974 0 50.7448 10.8114 46.0011 27.7152C41.2596 10.8114 34.007 0 25.8759 0C11.587 0 0 35.971 0 80.3392H11.5013C11.5013 39.1392 17.9398 5.73882 25.8759 5.73882Z" fill="#FDBB20"/>
<path id="Vector_2" d="M6.01635 101.375H10.0144C11.1842 101.375 12.3027 101.206 13.3354 100.872C14.0039 100.658 14.5052 100.443 14.833 100.231C15.298 99.9442 15.7544 99.535 16.1893 99.0166C16.62 98.5025 17.0013 97.7935 17.3184 96.9088C17.6355 96.0241 17.7962 95.0194 17.7962 93.9226C17.7962 92.9436 17.6655 92.0547 17.4063 91.2813C17.1492 90.5102 16.7614 89.8075 16.2557 89.1927C15.7522 88.5779 15.193 88.0981 14.5995 87.7661C14.0017 87.4319 13.2154 87.1684 12.2662 86.982C11.3064 86.7935 9.86228 86.6993 7.97467 86.6993H0V105.554H6.01635V101.377V101.375ZM5.91994 91.532H8.2682C9.56231 91.532 10.4751 91.7012 11.06 92.0504C11.677 92.4188 11.9877 93.085 11.9877 94.0276C11.9877 94.6145 11.857 95.1265 11.5978 95.5464C11.3342 95.9769 10.985 96.2683 10.5629 96.4139C10.1644 96.551 9.50018 96.6153 8.53174 96.6153H5.91994V91.532Z" fill="white"/>
<path id="Vector_3" d="M51.8935 95.7048C51.5978 95.889 50.985 96.0347 49.9673 96.1632C48.1354 96.3924 46.7213 96.6281 45.7593 96.8616C44.823 97.0908 44.0902 97.4014 43.5824 97.7891C43.0811 98.1704 42.6804 98.6953 42.3869 99.3465C42.0933 100.004 41.9434 100.702 41.9434 101.422C41.9434 102.667 42.3612 103.753 43.1839 104.653C44.0002 105.546 45.3008 105.998 47.0513 105.998C48.1118 105.998 49.0696 105.822 49.8966 105.479C50.7215 105.135 51.5014 104.595 52.2149 103.873L52.5448 103.539L52.8812 105.529H58.3833C57.9034 105.087 57.6591 104.492 57.6591 103.755V95.5334C57.6591 94.336 57.6099 93.5305 57.5135 93.1342C57.3656 92.4937 57.1364 91.9646 56.8343 91.5576C56.5322 91.1506 56.0886 90.7757 55.5187 90.4394C54.9445 90.1031 54.2332 89.8546 53.4019 89.7047C52.5555 89.5526 51.5849 89.4733 50.5137 89.4733C49.4424 89.4733 48.3047 89.5868 47.2655 89.8096C46.2392 90.0281 45.3351 90.4073 44.5809 90.93C44.0259 91.3198 43.6039 91.7997 43.3275 92.3609C43.0725 92.8815 42.9011 93.5798 42.8197 94.4452H47.9683C48.0411 93.9654 48.2318 93.5862 48.5382 93.3163C48.8917 93.0057 49.4552 92.8558 50.263 92.8558C51.0707 92.8558 51.6707 92.9971 52.0199 93.2906C52.3756 93.5884 52.5555 93.9825 52.5555 94.4581C52.5555 95.0086 52.3306 95.4285 51.8871 95.707L51.8935 95.7048ZM52.4913 98.6653C52.4913 99.6121 52.472 100.208 52.4334 100.484C52.3734 100.923 52.2449 101.292 52.0456 101.589C51.7735 101.975 51.4071 102.283 50.9507 102.506C50.4987 102.729 50.0187 102.842 49.5217 102.842C48.8446 102.842 48.3304 102.688 47.994 102.386C47.6512 102.078 47.4776 101.671 47.4776 101.178C47.4776 100.728 47.6105 100.34 47.874 100.026C48.1375 99.7085 48.6175 99.4729 49.3438 99.3079C50.2973 99.0894 50.9593 98.9202 51.3086 98.8002C51.6514 98.6824 51.9299 98.5667 52.1356 98.4532L52.4934 98.2583V98.6653H52.4913Z" fill="white"/>
<path id="Vector_4" d="M66.9684 93.2692C67.6369 93.2692 68.1897 93.4877 68.6096 93.9205C68.9846 94.3039 69.2202 94.8351 69.3145 95.5056H74.7202C74.5617 94.4581 74.2981 93.5906 73.936 92.9265C73.3768 91.879 72.5198 91.0307 71.3885 90.4095C70.2508 89.784 68.7917 89.4669 67.052 89.4669C64.4787 89.4669 62.4411 90.2381 60.9927 91.7569C59.5401 93.2799 58.8052 95.2936 58.8052 97.742C58.8052 100.191 59.5379 102.153 60.9863 103.665C62.4304 105.175 64.4701 105.94 67.052 105.94C68.1618 105.94 69.1945 105.786 70.1201 105.482C70.8186 105.246 71.4464 104.938 71.9863 104.563C72.5262 104.186 72.9955 103.768 73.3811 103.32C73.7625 102.875 74.0753 102.352 74.3153 101.765C74.5338 101.232 74.7031 100.54 74.8209 99.7021H69.4366C69.3209 100.45 69.0681 101.022 68.6867 101.403C68.2604 101.829 67.6926 102.043 66.9984 102.043C66.1242 102.043 65.4257 101.703 64.9244 101.035C64.4337 100.377 64.1938 99.2501 64.1938 97.59C64.1938 96.0519 64.4401 94.9765 64.9458 94.3039C65.46 93.6184 66.1414 93.2714 66.9705 93.2714L66.9684 93.2692Z" fill="white"/>
<path id="Vector_5" d="M91.6872 95.9062C91.3615 94.5588 90.8087 93.372 90.0417 92.3759C89.2789 91.3862 88.3341 90.6493 87.2349 90.1823C86.1272 89.7111 84.9231 89.4733 83.6547 89.4733C81.2357 89.4733 79.2667 90.268 77.8012 91.834C76.3335 93.4041 75.5879 95.4563 75.5879 97.9305C75.5879 100.263 76.3249 102.202 77.7776 103.691C79.2281 105.18 81.2657 105.934 83.8347 105.934C85.4459 105.934 86.8514 105.632 88.017 105.034C89.1804 104.438 90.0953 103.667 90.7359 102.744C91.0701 102.262 91.3208 101.705 91.4794 101.088H86.3629C85.9044 101.953 85.1459 102.393 84.1003 102.393C83.0548 102.393 82.3284 102.099 81.7778 101.521C81.2336 100.949 80.9379 100.148 80.8993 99.1408L80.8908 98.8902H92C91.9957 97.7249 91.8907 96.7223 91.6872 95.9083V95.9062ZM80.9208 96.1204L80.9422 95.859C81.0215 94.8865 81.3107 94.1325 81.8014 93.6162C82.3006 93.0935 82.9584 92.8279 83.7554 92.8279C84.636 92.8279 85.3473 93.1064 85.8744 93.6526C86.3972 94.1967 86.6714 94.9422 86.6929 95.8719L86.6993 96.1183H80.925L80.9208 96.1204Z" fill="white"/>
<path id="Vector_6" d="M27.0758 95.8548C23.4634 96.5767 17.8306 96.1868 17.8306 101.272C17.8306 104.496 20.2174 106 23.2491 106C25.1496 106 27.1422 105.458 28.4877 104.074C28.5499 104.584 28.6099 105.066 28.7941 105.548H34.0327C33.4199 104.314 33.4199 102.868 33.4199 101.544V94.7109C33.4199 90.2895 29.7733 89.4755 26.0088 89.4755C24.2004 89.4755 22.3643 89.7775 20.9544 90.5615C19.5468 91.3713 18.5655 92.6972 18.4755 94.743H23.3434C23.5898 93.4192 24.5047 92.7872 25.9445 92.7872C27.0179 92.7872 28.4556 93.2349 28.4556 94.411C28.4556 95.3749 27.9649 95.6748 27.0779 95.8548H27.0758ZM25.2075 102.838C24.044 102.838 23.0349 102.326 23.0349 101.064C23.0349 99.8028 24.0162 99.3465 25.1775 99.0766C26.313 98.7767 27.6586 98.6867 28.3935 98.2347C28.5156 101.454 27.6864 102.84 25.2075 102.84V102.838Z" fill="white"/>
<path id="Vector_7" d="M40.7964 86.6971H35.6606V105.552H40.7964V86.6971Z" fill="white"/>
</g>
</svg>
